<svg width="22" height="27" viewBox="0 0 22 27" fill="none" xmlns="http://www.w3.org/2000/svg">
<path d="M14.25 6.43359V5.31641H13.1836V6.43359H14.25ZM8.81641 6.43359V5.31641H7.75V6.43359H8.81641ZM14.8086 3.33594C16.6029 4.6224 17.5 6.36589 17.5 8.56641H4.5C4.5 6.33203 5.38021 4.58854 7.14063 3.33594L5.71875 1.91406C5.44792 1.64323 5.44792 1.38932 5.71875 1.15234C5.98958 0.915365 6.24349 0.915365 6.48047 1.15234L8.10547 2.77734C8.98568 2.30339 9.95052 2.06641 11 2.06641C12.0156 2.06641 12.9635 2.30339 13.8438 2.77734L15.4688 1.15234C15.7396 0.915365 15.9935 0.915365 16.2305 1.15234C16.4674 1.38932 16.4674 1.64323 16.2305 1.91406L14.8086 3.33594ZM19.0234 10.1914C19.362 9.85286 19.7513 9.68359 20.1914 9.68359C20.6315 9.68359 21.0039 9.85286 21.3086 10.1914C21.6471 10.4961 21.8164 10.8685 21.8164 11.3086V18.875C21.8164 19.349 21.6471 19.7383 21.3086 20.043C21.0039 20.3477 20.6315 20.5 20.1914 20.5C19.7513 20.5 19.362 20.3477 19.0234 20.043C18.7188 19.7383 18.5664 19.349 18.5664 18.875V11.3086C18.5664 10.8685 18.7188 10.4961 19.0234 10.1914ZM0.640625 10.1914C0.979167 9.85286 1.36849 9.68359 1.80859 9.68359C2.2487 9.68359 2.62109 9.85286 2.92578 10.1914C3.26432 10.4961 3.43359 10.8685 3.43359 11.3086V18.875C3.43359 19.349 3.26432 19.7383 2.92578 20.043C2.62109 20.3477 2.2487 20.5 1.80859 20.5C1.36849 20.5 0.979167 20.3477 0.640625 20.043C0.335938 19.7383 0.183594 19.349 0.183594 18.875V11.3086C0.183594 10.8685 0.335938 10.4961 0.640625 10.1914ZM4.5 20.5V9.68359H17.5V20.5C17.5 20.8047 17.3984 21.0586 17.1953 21.2617C16.9922 21.4648 16.7383 21.5664 16.4336 21.5664H15.3164V25.375C15.3164 25.849 15.1471 26.2383 14.8086 26.543C14.5039 26.8477 14.1315 27 13.6914 27C13.2513 27 12.862 26.8477 12.5234 26.543C12.2188 26.2383 12.0664 25.849 12.0664 25.375V21.5664H9.93359V25.375C9.93359 25.849 9.76432 26.2383 9.42578 26.543C9.12109 26.8477 8.7487 27 8.30859 27C7.86849 27 7.47917 26.8477 7.14063 26.543C6.83594 26.2383 6.68359 25.849 6.68359 25.375V21.5664H5.56641C5.26172 21.5664 5.00781 21.4648 4.80469 21.2617C4.60156 21.0586 4.5 20.8047 4.5 20.5Z" fill="#393939"/>
</svg>
