<svg width="20" height="26" viewBox="0 0 20 26" fill="none" xmlns="http://www.w3.org/2000/svg">
<path fill-rule="evenodd" clip-rule="evenodd" d="M8.36465 16.9605C8.34322 17.0355 8.32282 17.0981 8.3065 17.1608C7.35766 20.9025 7.25257 21.7334 6.27721 23.4713C5.81197 24.2971 5.28858 25.0797 4.70908 25.8285C4.64378 25.9127 4.58256 26.0226 4.45197 25.9959C4.30913 25.9651 4.29791 25.8357 4.2826 25.7207C4.1265 24.5837 4.0408 23.4436 4.07753 22.2953C4.1265 20.7998 4.31015 20.2862 6.22518 12.1803C6.25272 12.0571 6.22211 11.9544 6.18028 11.8424C5.72218 10.5976 5.63138 9.33422 6.03132 8.05445C6.89854 5.28948 10.0113 5.0779 10.5562 7.3591C10.8918 8.77034 10.0042 10.616 9.32267 13.3461C8.75847 15.5985 11.3917 17.1988 13.6424 15.5554C15.7176 14.0404 16.5236 10.4065 16.3706 7.83157C16.0686 2.69707 10.4766 1.58779 6.92813 3.24143C2.86037 5.13439 1.93601 10.2103 3.77248 12.5295C4.00509 12.8243 4.44381 13.0051 4.36729 13.304C4.24894 13.7682 4.14487 14.2366 4.01734 14.6988C3.92246 15.0429 3.37764 15.1671 3.03279 15.0264C2.35534 14.7512 1.79216 14.3167 1.33406 13.7456C-0.22591 11.8013 -0.671757 7.95585 1.39018 4.69992C3.67453 1.09273 7.92389 -0.365761 11.8039 0.0769217C16.4379 0.607935 19.3671 3.79504 19.915 7.41045C20.1649 9.05793 19.9854 13.1201 17.6877 15.9899C15.0453 19.2889 10.7623 19.5077 8.78601 17.4822C8.634 17.3272 8.51156 17.1454 8.36261 16.9594L8.36465 16.9605Z" fill="#595959"/>
</svg>
